<?xml version="1.0" encoding="utf-8"?>
<!-- Generator: Adobe Illustrator 19.2.0, SVG Export Plug-In . SVG Version: 6.00 Build 0)  -->
<!DOCTYPE svg PUBLIC "-//W3C//DTD SVG 1.1//EN" "http://www.w3.org/Graphics/SVG/1.1/DTD/svg11.dtd">
<svg version="1.1" id="Layer_1" xmlns:sketch="http://www.bohemiancoding.com/sketch/ns"
	 xmlns="http://www.w3.org/2000/svg" xmlns:xlink="http://www.w3.org/1999/xlink" x="0px" y="0px" width="34px" height="26px"
	 viewBox="0 0 34 26" style="enable-background:new 0 0 34 26;" xml:space="preserve">
<style type="text/css">
	.st0{enable-background:new    ;}
	.st1{fill:#FFFFFF;}
</style>
<title>X.</title>
<desc>Created with Sketch.</desc>
<g id="Welcome" sketch:type="MSPage">
	<g id="main" transform="translate(-53.000000, -26.000000)" sketch:alignment="middle" sketch:type="MSArtboardGroup">
		<g class="st0">
			<path class="st1" d="M70,51l-4.5-7.8L61.2,51h-7l8.1-12l-7.6-11.8H62l4.1,7.6l4.1-7.6h6.7l-7.6,11.6L77.4,51H70z"/>
			<path class="st1" d="M85.6,45.7c0.6,0.6,1,1.4,1,2.4c0,1-0.3,1.8-1,2.4c-0.6,0.6-1.5,0.9-2.6,0.9s-2-0.3-2.6-0.9
				c-0.6-0.6-1-1.4-1-2.4c0-1,0.3-1.8,1-2.4c0.6-0.6,1.5-0.9,2.6-0.9S84.9,45.1,85.6,45.7z"/>
		</g>
	</g>
</g>
</svg>
